<?xml version="1.0" encoding="UTF-8" standalone="no" ?>
<!DOCTYPE svg PUBLIC "-//W3C//DTD SVG 1.1//EN" "http://www.w3.org/Graphics/SVG/1.1/DTD/svg11.dtd">
<svg xmlns="http://www.w3.org/2000/svg" xmlns:xlink="http://www.w3.org/1999/xlink" version="1.1" width="465.973074798584" height="167.33391999999998" xml:space="preserve">
<desc>Created with Fabric.js 1.6.0-rc.1</desc>
<defs></defs>
  <g transform="translate(293.39 85.07) scale(2.81 2.81)">
   <text font-family="Dooodleista" font-size="40" font-weight="bold" style="stroke: none; stroke-width: 1; stroke-dasharray: none; stroke-linecap: butt; stroke-linejoin: miter; stroke-miterlimit: 10; fill: #006699; fill-rule: nonzero; opacity: 1;" ><tspan x="-58.36" y="8.98" style="stroke: none; stroke-width: 0; stroke-dasharray: none; stroke-linecap: butt; stroke-linejoin: miter; stroke-miterlimit: 4; fill: #006699; fill-rule: ; opacity: 1;">y</tspan><tspan x="-47.8" y="8.98" style="stroke: none; stroke-width: 0; stroke-dasharray: none; stroke-linecap: butt; stroke-linejoin: miter; stroke-miterlimit: 4; fill: #006699; fill-rule: ; opacity: 1;">e</tspan><tspan x="-36.68" y="8.98" style="stroke: none; stroke-width: 0; stroke-dasharray: none; stroke-linecap: butt; stroke-linejoin: miter; stroke-miterlimit: 4; fill: #006699; fill-rule: ; opacity: 1;">s</tspan><tspan x="-26.68" y="8.98" style="stroke: none; stroke-width: 0; stroke-dasharray: none; stroke-linecap: butt; stroke-linejoin: miter; stroke-miterlimit: 4; fill: #006699; fill-rule: ; opacity: 1;">h</tspan><tspan x="-15.56" y="8.98" style="stroke: none; stroke-width: 0; stroke-dasharray: none; stroke-linecap: butt; stroke-linejoin: miter; stroke-miterlimit: 4; fill: #006699; fill-rule: ; opacity: 1;">a</tspan><tspan x="-4.44" y="8.98" style="stroke: none; stroke-width: 0; stroke-dasharray: none; stroke-linecap: butt; stroke-linejoin: miter; stroke-miterlimit: 4; fill: #006699; fill-rule: ; opacity: 1;"> </tspan><tspan x="5.56" y="8.98" style="stroke: none; stroke-width: 0; stroke-dasharray: none; stroke-linecap: butt; stroke-linejoin: miter; stroke-miterlimit: 4; fill: #006699; fill-rule: ; opacity: 1;">a</tspan><tspan x="16.68" y="8.98" style="stroke: none; stroke-width: 0; stroke-dasharray: none; stroke-linecap: butt; stroke-linejoin: miter; stroke-miterlimit: 4; fill: #006699; fill-rule: ; opacity: 1;">r</tspan><tspan x="27.8" y="8.98" style="stroke: none; stroke-width: 0; stroke-dasharray: none; stroke-linecap: butt; stroke-linejoin: miter; stroke-miterlimit: 4; fill: #006699; fill-rule: ; opacity: 1;">o</tspan><tspan x="38.36" y="8.98" style="stroke: none; stroke-width: 0; stroke-dasharray: none; stroke-linecap: butt; stroke-linejoin: miter; stroke-miterlimit: 4; fill: #006699; fill-rule: ; opacity: 1;">o</tspan><tspan x="48.92" y="8.98" style="stroke: none; stroke-width: 0; stroke-dasharray: none; stroke-linecap: butt; stroke-linejoin: miter; stroke-miterlimit: 4; fill: #006699; fill-rule: ; opacity: 1;">j</tspan></text>
 </g>
<g style="stroke: none; stroke-width: 1; stroke-dasharray: none; stroke-linecap: butt; stroke-linejoin: miter; stroke-miterlimit: 10; fill: none; fill-rule: nonzero; opacity: 1;" transform="translate(9.999999999999993 25.289999999999992) scale(1.97 1.97)" >
  <path d="m 124.843 60.826 c -20.629 15.118 -28.662 39.527 -28.662 39.527 l 9.292 0 c 2.204 -16.22 19.37 -35.433 19.37 -35.433 c 0 0 16.85 19.213 19.055 35.433 l 9.292 0 c -0.001 0 -8.504 -24.409 -28.347 -39.527 z" style="stroke: none; stroke-width: 1; stroke-dasharray: none; stroke-linecap: butt; stroke-linejoin: miter; stroke-miterlimit: 10; fill: #0e344c; fill-rule: nonzero; opacity: 1;" transform=" matrix(0.9999999833405527 0 0 0.9999999833405527 -94.98699841756908 -60.82599898667246) " stroke-linecap="round" />
  <path d="m 124.843 69.33 c -14.331 15.512 -16.379 31.023 -16.379 31.023 l 2.678 0 c 2.205 -16.22 13.701 -27.874 13.701 -27.874 c 0 0 11.181 11.654 13.385 27.874 l 2.678 0 c -0.001 0 -1.889 -15.511 -16.063 -31.023 z" style="stroke: none; stroke-width: 1; stroke-dasharray: none; stroke-linecap: butt; stroke-linejoin: miter; stroke-miterlimit: 10; fill: #e4cf88; fill-rule: nonzero; opacity: 1;" transform=" matrix(0.9999999833405527 0 0 0.9999999833405527 -94.98699841756908 -60.82599898667246) " stroke-linecap="round" />
  <path d="m 124.999 84.898 c -15.862 0 -28.84 -7.842 -29.93 -17.773 c -0.047 0.446 -0.082 0.896 -0.082 1.35 c 0 10.562 13.438 19.124 30.012 19.124 c 16.576 0 30.014 -8.562 30.014 -19.124 c 0 -0.454 -0.034 -0.903 -0.082 -1.35 c -1.09 9.931 -14.069 17.773 -29.932 17.773 z" style="stroke: none; stroke-width: 1; stroke-dasharray: none; stroke-linecap: butt; stroke-linejoin: miter; stroke-miterlimit: 10; fill: #d19ca0; fill-rule: nonzero; opacity: 1;" transform=" matrix(0.9999999833405527 0 0 0.9999999833405527 -94.98699841756908 -60.82599898667246) " stroke-linecap="round" />
</g>
</svg>